Coordinates
version=1
nRows=19
nColumns=24
inDegrees=yes

Units are S.I. units (second, meters, Newtons, ...)
Angles are in degrees.

endheader
time	pelvis_tilt	pelvis_list	pelvis_rotation	pelvis_tx	pelvis_ty	pelvis_tz	hip_flexion_r	hip_adduction_r	hip_rotation_r	knee_angle_r	ankle_angle_r	subtalar_angle_r	mtp_angle_r	hip_flexion_l	hip_adduction_l	hip_rotation_l	knee_angle_l	ankle_angle_l	subtalar_angle_l	mtp_angle_l	lumbar_extension	lumbar_bending	lumbar_rotation
      0.63000000	      2.75651457	      0.43885565	      6.02054143	     -0.81875205	      0.98466658	      0.31646103	     22.39092072	      0.99930445	     -3.02778454	     -1.21032405	      4.12474293	    -17.10360619	      0.20684190	    -24.86999192	      1.74836398	      4.77997671	     -3.53443381	      3.75070192	     -3.62892999	     12.11082219	     -5.13897620	      2.71755059	     -5.00199600
      0.63416667	      2.70874217	      0.34273019	      6.08660630	     -0.81255618	      0.98398161	      0.31665923	     22.50344613	      1.13083996	     -3.02573783	     -1.64973288	      4.07196646	    -17.24857859	      0.20717204	    -25.04920080	      1.57514444	      4.69428192	     -3.74039999	      3.51212801	     -3.54009536	     12.11916211	     -5.02063622	      2.83310905	     -5.02117314
      0.63833333	      2.56228753	      0.22468907	      6.14836417	     -0.80629166	      0.98320261	      0.31695150	     22.68129229	      1.29537748	     -2.80599784	     -2.05515741	      3.97073423	    -17.80073831	      0.22725913	    -25.06118459	      1.38048629	      4.47179393	     -4.06933814	      3.40079016	     -3.14284571	     12.23979656	     -4.77019544	      2.97147091	     -5.08551795
      0.64250000	      2.48026718	      0.08691862	      6.21104935	     -0.79993938	      0.98252791	      0.31717325	     22.80138250	      1.47512044	     -2.72142094	     -2.51472885	      3.84800321	    -18.08367138	      0.23875777	    -25.18711739	      1.16521028	      4.35685602	     -4.30018392	      3.09195615	     -3.01022399	     12.32051509	     -4.57932721	      3.14642004	     -5.10862569
      0.64666667	      2.33101530	     -0.03596347	      6.25819772	     -0.79362377	      0.98178561	      0.31750639	     22.99004113	      1.65581894	     -2.48211055	     -2.99256181	      3.59051463	    -18.75590767	      0.27724569	    -25.17703724	      0.97086141	      4.15091663	     -4.66152715	      2.93442991	     -2.71015719	     12.57484039	     -4.33305943	      3.26838986	     -5.14369143
      0.65083333	      2.20819009	     -0.18433098	      6.29685878	     -0.78722794	      0.98109703	      0.31782011	     23.14690351	      1.86557445	     -2.28001214	     -3.48909929	      3.32507389	    -19.31062673	      0.32944831	    -25.21252169	      0.75384064	      3.97605827	     -4.98451864	      2.64787926	     -2.53247572	     12.91885429	     -4.09807079	      3.43466673	     -5.16943749
      0.65500000	      2.06863008	     -0.34245073	      6.32995883	     -0.78076772	      0.98041520	      0.31815054	     23.32617237	      2.08667828	     -2.09934871	     -4.02036546	      3.02210267	    -19.84171096	      0.39509639	    -25.22760727	      0.52907869	      3.80231967	     -5.30364914	      2.33640536	     -2.33684807	     13.33688800	     -3.84128980	      3.60684085	     -5.17781125
      0.65916667	      1.93518347	     -0.50046652	      6.37912956	     -0.77429767	      0.97977355	      0.31849186	     23.49594224	      2.30744017	     -1.93026243	     -4.56878966	      2.69372313	    -20.48861176	      0.50966125	    -25.23633327	      0.29302879	      3.66438095	     -5.64336727	      1.98971060	     -2.12026669	     14.02593240	     -3.57941100	      3.77910031	     -5.18995323
      0.66333333	      1.83799990	     -0.69172731	      6.36186639	     -0.76772290	      0.97917365	      0.31880617	     23.64616883	      2.57303784	     -1.82329324	     -5.16209277	      2.37905200	    -20.66037366	      0.53508412	    -25.30935728	      0.05912891	      3.48024722	     -5.93850672	      1.53859157	     -2.06311137	     14.18796068	     -3.34775025	      4.02267915	     -5.19561246
      0.66750000	      1.63593429	     -0.86538780	      6.38803705	     -0.76119891	      0.97851020	      0.31923850	     23.88828844	      2.82243407	     -1.59105436	     -5.73599275	      1.93302491	    -21.52600714	      0.65625061	    -25.19385901	     -0.18233093	      3.28305699	     -6.36723519	      1.20149764	     -1.80215502	     14.92314449	     -3.01482989	      4.18055819	     -5.18127308
      0.67166667	      1.53724975	     -1.07544115	      6.35319014	     -0.75455420	      0.97797378	      0.31959600	     24.03792678	      3.11444879	     -1.49814229	     -6.35032090	      1.56390783	    -21.67698040	      0.68420862	    -25.24430180	     -0.43061341	      3.07722831	     -6.68881449	      0.66251020	     -1.75364778	     15.10627966	     -2.77841766	      4.44394933	     -5.18291212
      0.67583333	      1.10565502	     -1.29305959	      6.57058078	     -0.74781993	      0.97729083	      0.32021422	     24.40900416	      3.35899384	     -1.24955731	     -6.74656134	      0.92525472	    -22.98911161	      0.93664135	    -24.75226382	     -0.81133639	      2.98663768	     -7.31444819	      0.25818383	     -1.46553646	     16.95612175	     -2.12747179	      4.58397864	     -5.51144436
      0.68000000	      0.94870860	     -1.44984524	      6.51884537	     -0.74131995	      0.97673572	      0.32066713	     24.69244650	      3.59295646	     -1.22057069	     -7.52545967	      0.67882919	    -23.07724517	      1.56647720	    -24.65494261	     -1.00131668	      2.76995773	     -7.77383147	     -0.31966788	     -1.39573593	     21.18776423	     -1.85009788	      4.74798025	     -5.40690232
      0.68416667	      0.81968531	     -1.64123507	      6.48633788	     -0.73475805	      0.97629081	      0.32112033	     24.88952861	      3.86616013	     -1.15909414	     -8.18321183	      0.16790071	    -23.42716581	      1.58534012	    -24.58254159	     -1.23673080	      2.60483668	     -8.23951400	     -0.86617631	     -1.32198635	     21.29477609	     -1.59721455	      4.95529070	     -5.30879114
      0.68833333	      0.70539853	     -1.85089218	      6.43009663	     -0.72815867	      0.97589404	      0.32162787	     25.06198041	      4.17164433	     -1.05824882	     -8.83732144	     -0.24880213	    -23.73438613	      1.60760738	    -24.49972141	     -1.48708782	      2.36555611	     -8.74924562	     -1.46877512	     -1.23066023	     21.44713887	     -1.36233604	      5.18382001	     -5.26906208
      0.69250000	      0.62325414	     -2.07068516	      6.36554065	     -0.72151470	      0.97557128	      0.32210980	     25.22384742	      4.47992996	     -1.06246979	     -9.55482624	     -0.58609083	    -23.89789694	      1.61556042	    -24.47021148	     -1.74322882	      2.18006404	     -9.21546128	     -2.15068359	     -1.17385300	     21.52824388	     -1.15433166	      5.44920158	     -5.24755967
      0.69666667	      0.43743460	     -2.26762901	      6.30449182	     -0.71492443	      0.97518119	      0.32268931	     25.48193517	      4.76842722	     -0.97097782	    -10.24857682	     -1.01014511	    -24.39156281	      1.66239035	    -24.23190142	     -1.98013854	      1.92801714	     -9.86363360	     -2.72829322	     -1.02429182	     21.96003867	     -0.82793522	      5.64939136	     -5.17436939
      0.70083333	      0.37737428	     -2.51582207	      6.21851604	     -0.70826515	      0.97498777	      0.32329745	     25.57595104	      5.13358780	     -0.86006747	    -10.89025152	     -1.34548687	    -24.82510151	      2.04795960	    -24.15619052	     -2.27421019	      1.62484316	    -10.43006149	     -3.51368122	     -0.97929402	     25.52188560	     -0.65267741	      5.93276164	     -5.20385984
      0.70500000	      0.29088283	     -2.72959693	      6.15813663	     -0.70163353	      0.97481988	      0.32380358	     25.73802581	      5.41588312	     -0.96719054	    -11.61919995	     -1.64230117	    -24.75807945	      2.05110055	    -24.02736493	     -2.52866040	      1.45685738	    -11.04172318	     -4.28816689	     -0.96462747	     25.56273532	     -0.44412995	      6.18426157	     -5.13818498
